PathFileType        4      (X/Y/Z)      /Users/FranklinZhao/OpenSimProject/Simulation/Models/Rajapogal_2015/scale_data/transformed_SN001_static.trc         
DataRate	CameraRate	NumFrames	NumMarkers	Units	OrigDataRate	OrigDataStartFrame	OrigNumFrames
200.0	200.0	3	72	mm	200.0	1	14
Frame#	Time	LPSIS			RPSIS			LICR			RICR			LASIS			RASIS			RUA1			RUA2			RUA3			RUA4			RHLE			RHME			RTEMP			RHEAD			LHEAD			LTEMP			RACR			LACR			LUA1			LUA2			LUA3			LUA4			LHLE			LHME			STER			XPRO			C7			T4			T8			T10			LFA1			LFA2			LFA3			LRSP			LUSP			RFA1			RFA2			RFA3			RRSP			RUSP			LTH1			LTH2			LTH3			LTH4			LFLE			LFME			LSK1			LSK2			LSK3			LSK4			LTAM			LFAL			LFCC			LFMT1			LFMT2			LFMT5			RTH1			RTH2			RTH3			RTH4			RFLE			RFME			RSK1			RSK2			RSK3			RSK4			RFAL			RTAM			RFCC			RFMT1			RFMT2			RFMT5			
		X1	Y1	Z1	X2	Y2	Z2	X3	Y3	Z3	X4	Y4	Z4	X5	Y5	Z5	X6	Y6	Z6	X7	Y7	Z7	X8	Y8	Z8	X9	Y9	Z9	X10	Y10	Z10	X11	Y11	Z11	X12	Y12	Z12	X13	Y13	Z13	X14	Y14	Z14	X15	Y15	Z15	X16	Y16	Z16	X17	Y17	Z17	X18	Y18	Z18	X19	Y19	Z19	X20	Y20	Z20	X21	Y21	Z21	X22	Y22	Z22	X23	Y23	Z23	X24	Y24	Z24	X25	Y25	Z25	X26	Y26	Z26	X27	Y27	Z27	X28	Y28	Z28	X29	Y29	Z29	X30	Y30	Z30	X31	Y31	Z31	X32	Y32	Z32	X33	Y33	Z33	X34	Y34	Z34	X35	Y35	Z35	X36	Y36	Z36	X37	Y37	Z37	X38	Y38	Z38	X39	Y39	Z39	X40	Y40	Z40	X41	Y41	Z41	X42	Y42	Z42	X43	Y43	Z43	X44	Y44	Z44	X45	Y45	Z45	X46	Y46	Z46	X47	Y47	Z47	X48	Y48	Z48	X49	Y49	Z49	X50	Y50	Z50	X51	Y51	Z51	X52	Y52	Z52	X53	Y53	Z53	X54	Y54	Z54	X55	Y55	Z55	X56	Y56	Z56	X57	Y57	Z57	X58	Y58	Z58	X59	Y59	Z59	X60	Y60	Z60	X61	Y61	Z61	X62	Y62	Z62	X63	Y63	Z63	X64	Y64	Z64	X65	Y65	Z65	X66	Y66	Z66	X67	Y67	Z67	X68	Y68	Z68	X69	Y69	Z69	X70	Y70	Z70	X71	Y71	Z71	X72	Y72	Z72	
1	0.0	-1604.74755859375	1006.657165527344	276.75338745117153	-1604.299072265625	1009.6344604492191	354.05963134765585	-1585.516235351562	1066.23046875	183.9215545654293	-1572.944213867188	1091.438598632812	445.4125061035152	-1413.401611328125	989.2449951171875	185.38404846191375	-1406.956665039062	994.5175781250001	444.41561889648403	-1559.757446289062	1369.958129882812	562.2472534179683	-1498.5341796875	1400.794921875	592.6768188476558	-1480.274536132812	1346.4172363281252	639.9085083007808	-1538.532592773438	1306.394897460938	616.570922851562	-1500.158325195312	1244.3439941406252	665.2627563476558	-1449.069213867188	1218.601928710938	613.9262695312495	-1410.283447265625	1708.160400390625	390.6608276367183	-1367.865356445312	1714.854125976562	353.6318664550776	-1369.453369140625	1712.319946289062	271.6501770019526	-1419.7470703125	1701.151977539062	233.62202453613233	-1532.761596679688	1523.071411132812	480.73297119140574	-1548.221923828125	1526.150024414062	128.4502105712886	-1517.35986328125	1408.452270507812	30.114816665648966	-1566.419067382812	1354.875	52.80323028564409	-1539.678588867188	1290.64453125	0.7922279834743059	-1491.15478515625	1342.855712890625	-21.274358749390075	-1494.26904296875	1249.0732421875	-41.86265563964885	-1457.700805664062	1217.426635742188	11.435760498046479	-1448.244995117188	1455.011352539062	302.02563476562455	-1391.005126953125	1250.25439453125	294.8869323730465	-1576.9853515625	1559.919677734375	312.83831787109335	-1635.820922851562	1450.263793945312	307.54147338867136	-1635.8779296875	1314.873413085938	311.12673950195267	-1630.432983398438	1269.871704101562	306.36022949218705	-1447.662109375	1140.004150390625	-223.92181396484418	-1473.318481445312	1107.762451171875	-200.81814575195347	-1437.8525390625	1107.04833984375	-228.88171386718787	-1390.56982421875	1100.32861328125	-248.16807556152378	-1413.899047851562	1047.199829101562	-209.97457885742227	-1506.429565429688	1120.4957275390623	808.796752929687	-1487.023681640625	1152.0238037109382	837.266479492187	-1480.606323242188	1118.8553466796882	845.888305664062	-1449.517822265625	1099.4938964843752	889.8081665039058	-1456.882446289062	1056.1871337890623	844.2087402343745	-1489.689697265625	715.9682006835938	123.08692932128879	-1538.841796875	719.6854858398438	134.83515930175747	-1553.0419921875	612.748291015625	143.3592529296872	-1490.636596679688	613.2923583984375	126.3028945922849	-1534.501953125	520.3262939453125	142.81286621093722	-1519.338745117188	492.1347961425782	259.13516235351534	-1568.816650390625	350.7893371582031	100.25736236572243	-1626.99853515625	352.7330322265625	122.61088562011693	-1631.076782226562	264.9302062988281	127.72167968749976	-1571.954467773438	267.3808898925781	102.68035125732396	-1551.07861328125	85.32520294189457	193.73587036132787	-1608.066528320312	76.61151123046878	133.3050842285154	-1627.165649414062	36.63389968872074	188.3972015380857	-1421.707397460938	30.292631149292014	131.64050292968733	-1433.387329101562	31.155895233154318	93.6962814331053	-1491.859497070312	23.58554840087892	58.679767608642386	-1513.92333984375	748.5396118164064	499.5735778808591	-1457.7705078125	727.6416015625001	497.7379150390622	-1460.442993164062	641.0166625976564	489.6141967773435	-1524.706298828125	648.3088989257814	489.5134887695309	-1524.995483398438	536.3753662109376	480.5905456542966	-1519.98095703125	500.75207519531256	362.0141601562497	-1590.896240234375	366.3563842773439	512.1870117187497	-1534.396362304688	383.547821044922	518.6446533203122	-1533.404174804688	274.335906982422	513.7358398437498	-1597.435668945312	283.6156616210939	511.49203491210915	-1594.15869140625	74.14624023437509	487.9555358886717	-1550.294555664062	87.56560516357429	414.9452819824217	-1623.540161132812	42.79611587524422	439.90774536132795	-1422.850708007812	30.178522109985437	455.00942993164045	-1421.8017578125	31.13928794860849	500.00988769531233	-1468.169311523438	21.15594863891612	547.1583251953123	
2	0.005	-1604.765625	1006.686096191406	276.72479248046847	-1604.351318359375	1009.6514892578122	354.09973144531216	-1585.516479492188	1066.2373046875	183.9069519042965	-1572.9921875	1091.41748046875	445.413909912109	-1413.390991210938	989.2765502929688	185.35433959960906	-1406.958129882812	994.5424804687501	444.36926269531216	-1559.7939453125	1369.951049804688	562.2598266601558	-1498.54638671875	1400.818237304688	592.7261352539058	-1480.338623046875	1346.4117431640623	639.9439086914058	-1538.6162109375	1306.401245117188	616.552124023437	-1500.198852539062	1244.3128662109382	665.2480468749995	-1449.140258789062	1218.601196289062	613.9331665039058	-1410.350830078125	1708.14599609375	390.6731262207026	-1367.934326171875	1714.9091796875	353.6125793457026	-1369.462768554688	1712.3720703125	271.6882934570307	-1419.802124023438	1701.23583984375	233.6304321289057	-1532.820434570312	1523.064575195312	480.74462890624955	-1548.255249023438	1526.196044921875	128.4400939941401	-1517.412353515625	1408.473022460938	30.114053726195845	-1566.47900390625	1354.893676757812	52.82870101928667	-1539.725952148438	1290.690185546875	0.8060479760165726	-1491.158447265625	1342.872802734375	-21.279375076294375	-1494.316284179688	1249.095825195312	-41.90015411376994	-1457.720825195312	1217.4150390625	11.454316139220788	-1448.249389648438	1455.095581054688	301.99343872070267	-1390.989379882812	1250.2099609375	294.8409729003902	-1577.0185546875	1559.907836914062	312.85171508789017	-1635.87255859375	1450.383178710938	307.4755249023433	-1635.8564453125	1314.873779296875	311.1311950683589	-1630.415161132812	1269.847412109375	306.34216308593705	-1447.606567382812	1140.05712890625	-223.97834777832068	-1473.247802734375	1107.789916992188	-200.89340209960977	-1437.811401367188	1107.123168945312	-228.97935485839878	-1390.518188476562	1100.42041015625	-248.17724609375037	-1413.801635742188	1047.275146484375	-210.07794189453156	-1506.44677734375	1120.4561767578123	808.778686523437	-1487.049560546875	1152.0125732421882	837.250610351562	-1480.660278320312	1118.9313964843752	845.9560546874995	-1449.510620117188	1099.5213623046882	889.819946289062	-1456.855346679688	1056.2149658203123	844.225708007812	-1489.73681640625	715.9979248046875	123.11455535888639	-1538.829956054688	719.7105102539062	134.85794067382776	-1553.0625	612.7425537109375	143.3681335449216	-1490.642456054688	613.2515869140625	126.3109512329099	-1534.491455078125	520.2728881835938	142.78916931152312	-1519.325439453125	492.1961975097657	259.1744995117185	-1568.77685546875	350.8560485839844	100.23990631103493	-1626.99169921875	352.7456359863281	122.56856536865203	-1631.097412109375	264.9366760253906	127.72232818603496	-1571.952758789062	267.3781433105469	102.66694641113256	-1551.145141601562	85.4286041259766	193.70108032226537	-1608.011962890625	76.63354492187503	133.3100433349607	-1627.150390625	36.6369781494141	188.3927307128904	-1421.699096679688	30.296106338501005	131.64698791503892	-1433.377197265625	31.158170700073256	93.63887023925764	-1491.882202148438	23.57779502868653	58.694171905517386	-1513.927978515625	748.5847167968751	499.5877685546872	-1457.755737304688	727.7044067382814	497.7505493164059	-1460.471923828125	641.0079956054689	489.5684509277341	-1524.705932617188	648.3184814453126	489.5191345214841	-1525.018432617188	536.3989868164064	480.6185302734372	-1519.911254882812	500.7910461425782	362.02285766601534	-1590.885864257812	366.36978149414074	512.1981811523434	-1534.405639648438	383.58328247070324	518.6520385742184	-1533.389526367188	274.363494873047	513.763488769531	-1597.427001953125	283.62771606445324	511.4974670410154	-1594.102416992188	74.16961669921884	487.99734497070295	-1550.285888671875	87.47619628906257	414.928039550781	-1623.555786132812	42.77854156494149	439.92059326171864	-1422.916259765625	30.094879150390707	454.90429687499983	-1421.862182617188	30.919111251831144	499.847717285156	-1468.190673828125	21.18737411499033	547.1503906249998	
3	0.01	-1604.792724609375	1006.640991210938	276.6985168457028	-1604.38525390625	1009.6459960937501	354.09295654296847	-1585.527221679688	1066.251708984375	183.9140472412105	-1572.993286132812	1091.465087890625	445.4132080078121	-1413.4267578125	989.2642211914062	185.39921569824185	-1406.962280273438	994.5794677734376	444.4238586425778	-1559.896484375	1369.901611328125	562.2379760742183	-1498.628662109375	1400.8115234375	592.7162475585933	-1480.389526367188	1346.4144287109382	639.9669799804683	-1538.671142578125	1306.397216796875	616.5608520507808	-1500.257446289062	1244.3278808593752	665.278930664062	-1449.182739257812	1218.614013671875	613.9721679687495	-1410.375122070312	1708.224975585938	390.744506835937	-1367.90771484375	1714.914184570312	353.6642150878901	-1369.480102539062	1712.392822265625	271.8052062988276	-1419.795776367188	1701.117309570312	233.73030090331983	-1532.833984375	1523.057373046875	480.7638854980464	-1548.250854492188	1526.186889648438	128.4834136962886	-1517.430908203125	1408.455078125	30.123737335204638	-1566.504028320312	1354.878662109375	52.81771850585894	-1539.767700195312	1290.670654296875	0.8069932460780656	-1491.20703125	1342.90625	-21.282445907593196	-1494.340209960938	1249.12158203125	-41.94876098632853	-1457.789184570312	1217.37255859375	11.438115119933677	-1448.322875976562	1455.04931640625	302.02410888671835	-1391.036865234375	1250.251586914062	294.8740234374996	-1577.043334960938	1559.89306640625	312.88702392578074	-1635.870849609375	1450.270751953125	307.55355834960886	-1635.881225585938	1314.8720703125	311.12438964843705	-1630.47314453125	1269.86083984375	306.32363891601517	-1447.593994140625	1140.1376953125	-223.99705505371128	-1473.206420898438	1107.831176757812	-200.92895507812537	-1437.772094726562	1107.18310546875	-229.01397705078156	-1390.463134765625	1100.535034179688	-248.21243286132847	-1413.601928710938	1047.20263671875	-210.17181396484418	-1506.437744140625	1120.4630126953123	808.8457641601558	-1487.037353515625	1152.0531005859382	837.1817016601558	-1480.603515625	1118.8426513671882	845.8974609374995	-1449.50927734375	1099.5480957031252	889.863159179687	-1456.820434570312	1056.1932373046882	844.2153930664058	-1489.720458984375	716.0020141601562	123.16928100585909	-1538.843994140625	719.72802734375	134.85269165039026	-1553.054321289062	612.7561645507812	143.39102172851528	-1490.630126953125	613.260498046875	126.3197784423825	-1534.5107421875	520.3067016601562	142.81272888183562	-1519.370849609375	492.18640136718756	259.13198852539034	-1568.792236328125	350.7863464355469	100.27286529540993	-1626.994384765625	352.7344055175781	122.58703613281223	-1631.0888671875	264.9402770996094	127.73588562011696	-1571.979858398438	267.3995971679688	102.67157745361305	-1551.0908203125	85.4136123657227	193.72152709960918	-1608.061279296875	76.61568450927737	133.3774719238279	-1627.213256835938	36.65522766113285	188.398986816406	-1421.720825195312	30.303329467773466	131.68917846679673	-1433.392578125	31.165136337280288	93.67194366455061	-1491.885620117188	23.59375000000001	58.694564819335746	-1513.946899414062	748.5609741210939	499.5845642089841	-1457.783813476562	727.7360229492189	497.7353210449216	-1460.449951171875	641.0625000000001	489.6206970214841	-1524.7001953125	648.3446655273439	489.4743347167966	-1525.049682617188	536.3862304687501	480.5672607421872	-1520.006713867188	500.81372070312506	362.02029418945284	-1590.923583984375	366.418914794922	512.1729125976559	-1534.416259765625	383.59085083007824	518.6226196289059	-1533.351928710938	274.3887939453126	513.7210693359373	-1597.423706054688	283.67507934570324	511.5178527832029	-1594.143432617188	74.15402984619149	487.9382019042967	-1550.29931640625	87.57969665527351	414.9612731933592	-1623.571411132812	42.817440032959055	439.90127563476545	-1422.897338867188	30.101287841796964	454.9109802246092	-1421.869140625	30.98352241516122	499.8890075683592	-1468.197387695312	21.25390815734873	547.2086791992185	
